# Created using SwiftConverter

# Vertex Array
v -500.000 -1250.000 -0.000
v -500.000 -1250.000 500.000
v 500.000 -1250.000 -0.000
v 500.000 -1250.000 500.000
v -500.000 -1250.000 -1500.000
v -500.000 -1250.000 -1000.000
v 500.000 -1250.000 -1500.000
v 500.000 -1250.000 -1000.000
v 500.000 750.000 -1000.000
v 500.000 1250.000 -1500.000
v 500.000 750.000 0.000
v 500.000 1250.000 500.000
v -500.000 750.000 -1000.000
v -500.000 1250.000 -1500.000
v -500.000 750.000 0.000
v -500.000 1250.000 500.000

# Normal Array
vn 0.000 -1.000 0.000
vn 0.000 -1.000 0.000
vn 0.000 -1.000 0.000
vn 0.000 -1.000 0.000
vn 1.000 0.000 0.000
vn 1.000 0.000 0.000
vn 1.000 0.000 0.000
vn 1.000 0.000 -0.000
vn 1.000 0.000 0.000
vn 1.000 0.000 0.000
vn -1.000 0.000 0.000
vn -1.000 0.000 -0.000
vn -1.000 0.000 0.000
vn -1.000 0.000 0.000
vn -1.000 -0.000 0.000
vn -1.000 0.000 0.000
vn 0.000 0.000 -1.000
vn 0.000 0.000 -1.000
vn 0.000 -1.000 0.000
vn 0.000 -1.000 0.000
vn 0.000 -0.000 1.000
vn 0.000 0.000 1.000
vn -0.000 1.000 0.000
vn 0.000 1.000 0.000
vn 0.000 0.000 -1.000
vn 0.000 0.000 -1.000
vn -0.000 0.000 1.000
vn 0.000 0.000 1.000

# Facets
f 1//1 3//1 2//1
f 3//2 4//2 2//2
f 5//3 7//3 6//3
f 7//4 8//4 6//4
f 9//5 8//5 7//5
f 7//6 10//6 9//6
f 10//7 11//7 9//7
f 10//8 12//8 11//8
f 12//9 3//9 11//9
f 12//10 4//10 3//10
f 6//11 13//11 5//11
f 13//12 14//12 5//12
f 13//13 15//13 14//13
f 15//14 16//14 14//14
f 15//15 1//15 16//15
f 1//16 2//16 16//16
f 11//17 3//17 15//17
f 3//18 1//18 15//18
f 13//19 9//19 15//19
f 9//20 11//20 15//20
f 8//21 9//21 6//21
f 9//22 13//22 6//22
f 16//23 12//23 14//23
f 12//24 10//24 14//24
f 5//25 14//25 7//25
f 14//26 10//26 7//26
f 16//27 2//27 12//27
f 2//28 4//28 12//28

# Thankyou for using SwiftConverter

