#Wavefront Obj file
#Converted from Glovius
#HCL Technologies Ltd
#http://www.glovius.com
#
mtllib Doorandwindows.mtl
g Doorandwindows
g Default
usemtl Mat_3_-1
# Vertices 13
v -2.1538 -1.0385 -2.7300
v -2.1538 -1.0385 0.0000
v -2.9038 -1.0385 -3.4800
v -2.9038 -1.0385 0.7700
v 1.8462 -1.0385 -2.7300
v 1.8462 -1.0385 0.0000
v 2.5962 -1.0385 -3.4800
v 2.5962 -1.0385 0.7700
v -0.1538 -1.0385 0.0000
v -0.5538 -1.0385 0.5200
v 0.2462 -1.0385 0.5200
v -0.5538 -1.0385 0.7700
v 0.2462 -1.0385 0.7700
# Textures 39
vt -3.5000 -0.2088
vt -0.7700 -0.2088
vt -4.2500 -0.9588
vt 0.0000 -0.9588
vt -4.2500 -0.9588
vt -0.7700 -0.2088
vt -3.5000 3.7912
vt -3.5000 -0.2088
vt -4.2500 -0.9588
vt -0.7700 3.7912
vt -3.5000 3.7912
vt -4.2500 4.5412
vt -4.2500 -0.9588
vt -4.2500 4.5412
vt -3.5000 3.7912
vt 0.0000 4.5412
vt -0.7700 3.7912
vt -4.2500 4.5412
vt -0.7700 1.7912
vt -0.2500 1.3912
vt -0.7700 -0.2088
vt -0.7700 1.7912
vt -0.2500 2.1912
vt -0.2500 1.3912
vt -0.2500 1.3912
vt 0.0000 1.3912
vt -0.7700 -0.2088
vt 0.0000 -0.9588
vt -0.7700 -0.2088
vt 0.0000 1.3912
vt -0.7700 3.7912
vt 0.0000 4.5412
vt 0.0000 2.1912
vt -0.2500 2.1912
vt -0.7700 3.7912
vt 0.0000 2.1912
vt -0.7700 3.7912
vt -0.2500 2.1912
vt -0.7700 1.7912
# Normals 13
vn -0.0000 -1.0000 -0.0000
vn -0.0000 -1.0000 -0.0000
vn -0.0000 -1.0000 -0.0000
vn -0.0000 -1.0000 -0.0000
vn -0.0000 -1.0000 -0.0000
vn -0.0000 -1.0000 -0.0000
vn -0.0000 -1.0000 -0.0000
vn -0.0000 -1.0000 -0.0000
vn -0.0000 -1.0000 -0.0000
vn -0.0000 -1.0000 -0.0000
vn -0.0000 -1.0000 -0.0000
vn -0.0000 -1.0000 -0.0000
vn -0.0000 -1.0000 -0.0000
# Faces
f 1/1/1 2/2/2 3/3/3 
f 4/4/4 3/5/3 2/6/2 
f 5/7/5 1/8/1 3/9/3 
f 6/10/6 5/11/5 7/12/7 
f 3/13/3 7/14/7 5/15/5 
f 8/16/8 6/17/6 7/18/7 
f 9/19/9 10/20/10 2/21/2 
f 9/22/9 11/23/11 10/24/10 
f 10/25/10 12/26/12 2/27/2 
f 4/28/4 2/29/2 12/30/12 
f 6/31/6 8/32/8 13/33/13 
f 11/34/11 6/35/6 13/36/13 
f 6/37/6 11/38/11 9/39/9 
usemtl Mat_3_-1
# Vertices 8
v 1.8462 1.9615 0.0000
v -2.1538 1.9615 0.0000
v -2.9038 1.9615 0.7700
v -2.9038 1.9615 -3.4800
v 2.5962 1.9615 -3.4800
v 2.5962 1.9615 0.7700
v -2.1538 1.9615 -2.7300
v 1.8462 1.9615 -2.7300
# Textures 24
vt 0.7700 0.0000
vt 0.7700 -4.0000
vt 0.0000 -4.7500
vt 4.2500 -4.7500
vt 0.0000 -4.7500
vt 0.7700 -4.0000
vt 4.2500 0.7500
vt 0.7700 0.0000
vt 0.0000 0.7500
vt 0.0000 -4.7500
vt 0.0000 0.7500
vt 0.7700 0.0000
vt 4.2500 0.7500
vt 4.2500 -4.7500
vt 3.5000 -4.0000
vt 0.7700 -4.0000
vt 3.5000 -4.0000
vt 4.2500 -4.7500
vt 0.7700 0.0000
vt 4.2500 0.7500
vt 3.5000 0.0000
vt 3.5000 -4.0000
vt 3.5000 0.0000
vt 4.2500 0.7500
# Normals 8
vn -0.0000 1.0000 -0.0000
vn -0.0000 1.0000 -0.0000
vn -0.0000 1.0000 -0.0000
vn -0.0000 1.0000 -0.0000
vn -0.0000 1.0000 -0.0000
vn -0.0000 1.0000 -0.0000
vn -0.0000 1.0000 -0.0000
vn -0.0000 1.0000 -0.0000
# Faces
f 14/40/14 15/41/15 16/42/16 
f 17/43/17 16/44/16 15/45/15 
f 18/46/18 14/47/14 19/48/19 
f 16/49/16 19/50/19 14/51/14 
f 18/52/18 17/53/17 20/54/20 
f 15/55/15 20/56/20 17/57/17 
f 14/58/14 18/59/18 21/60/21 
f 20/61/20 21/62/21 18/63/18 
usemtl Mat_3_-1
# Vertices 8
v -2.9038 -1.0385 0.7700
v -0.5538 -1.0385 0.7700
v -0.5538 1.0615 0.7700
v -2.9038 1.9615 0.7700
v 0.2462 1.0615 0.7700
v 0.2462 -1.0385 0.7700
v 2.5962 -1.0385 0.7700
v 2.5962 1.9615 0.7700
# Textures 18
vt -2.9038 -1.0385
vt -0.5538 -1.0385
vt -0.5538 1.0615
vt -2.9038 1.9615
vt -0.5538 1.0615
vt 0.2462 1.0615
vt -0.5538 1.0615
vt -2.9038 1.9615
vt -2.9038 -1.0385
vt 0.2462 -1.0385
vt 2.5962 -1.0385
vt 0.2462 1.0615
vt 0.2462 1.0615
vt 2.5962 1.9615
vt -2.9038 1.9615
vt 2.5962 1.9615
vt 0.2462 1.0615
vt 2.5962 -1.0385
# Normals 8
vn 0.0000 0.0000 1.0000
vn 0.0000 0.0000 1.0000
vn 0.0000 0.0000 1.0000
vn 0.0000 0.0000 1.0000
vn 0.0000 0.0000 1.0000
vn 0.0000 0.0000 1.0000
vn 0.0000 0.0000 1.0000
vn 0.0000 0.0000 1.0000
# Faces
f 22/64/22 23/65/23 24/66/24 
f 25/67/25 24/68/24 26/69/26 
f 24/70/24 25/71/25 22/72/22 
f 27/73/27 28/74/28 26/75/26 
f 26/76/26 29/77/29 25/78/25 
f 29/79/29 26/80/26 28/81/28 
usemtl Mat_3_-1
# Vertices 4
v 1.8462 1.9615 0.0000
v -2.1538 -1.0385 0.0000
v -2.1538 1.9615 0.0000
v 1.8462 -1.0385 0.0000
# Textures 6
vt 1.8462 1.9615
vt -2.1538 -1.0385
vt -2.1538 1.9615
vt -2.1538 -1.0385
vt 1.8462 1.9615
vt 1.8462 -1.0385
# Normals 4
vn -0.0000 -0.0000 -1.0000
vn -0.0000 -0.0000 -1.0000
vn -0.0000 -0.0000 -1.0000
vn -0.0000 -0.0000 -1.0000
# Faces
f 30/82/30 31/83/31 32/84/32 
f 31/85/31 30/86/30 33/87/33 
usemtl Mat_3_-1
# Vertices 4
v -0.5538 1.0615 0.7700
v -0.5538 -1.0385 0.7700
v -0.5538 -1.0385 0.5200
v -0.5538 1.0615 0.5200
# Textures 6
vt 0.2500 2.1000
vt 0.2500 0.0000
vt 0.0000 0.0000
vt 0.0000 0.0000
vt 0.0000 2.1000
vt 0.2500 2.1000
# Normals 4
vn 1.0000 -0.0000 -0.0000
vn 1.0000 -0.0000 -0.0000
vn 1.0000 -0.0000 -0.0000
vn 1.0000 -0.0000 -0.0000
# Faces
f 34/88/34 35/89/35 36/90/36 
f 36/91/36 37/92/37 34/93/34 
usemtl Mat_3_-1
# Vertices 4
v 0.2462 1.0615 0.7700
v -0.5538 1.0615 0.7700
v -0.5538 1.0615 0.5200
v 0.2462 1.0615 0.5200
# Textures 6
vt 0.2500 0.8000
vt 0.2500 0.0000
vt 0.0000 0.0000
vt 0.0000 0.0000
vt 0.0000 0.8000
vt 0.2500 0.8000
# Normals 4
vn -0.0000 -1.0000 -0.0000
vn -0.0000 -1.0000 -0.0000
vn -0.0000 -1.0000 -0.0000
vn -0.0000 -1.0000 -0.0000
# Faces
f 38/94/38 39/95/39 40/96/40 
f 40/97/40 41/98/41 38/99/38 
usemtl Mat_3_-1
# Vertices 4
v 0.2462 1.0615 0.7700
v 0.2462 1.0615 0.5200
v 0.2462 -1.0385 0.5200
v 0.2462 -1.0385 0.7700
# Textures 6
vt 0.0000 0.2500
vt 0.0000 0.0000
vt -2.1000 0.0000
vt -2.1000 0.0000
vt -2.1000 0.2500
vt 0.0000 0.2500
# Normals 4
vn -1.0000 -0.0000 -0.0000
vn -1.0000 -0.0000 -0.0000
vn -1.0000 -0.0000 -0.0000
vn -1.0000 -0.0000 -0.0000
# Faces
f 42/100/42 43/101/43 44/102/44 
f 44/103/44 45/104/45 42/105/42 
usemtl Mat_3_-1
# Vertices 4
v -0.5538 -1.0385 0.5200
v 0.2462 -1.0385 0.5200
v 0.2462 1.0615 0.5200
v -0.5538 1.0615 0.5200
# Textures 6
vt 0.5538 -1.0385
vt -0.2462 -1.0385
vt -0.2462 1.0615
vt -0.2462 1.0615
vt 0.5538 1.0615
vt 0.5538 -1.0385
# Normals 4
vn -0.0000 -0.0000 1.0000
vn -0.0000 -0.0000 1.0000
vn -0.0000 -0.0000 1.0000
vn -0.0000 -0.0000 1.0000
# Faces
f 46/106/46 47/107/47 48/108/48 
f 48/109/48 49/110/49 46/111/46 
usemtl Mat_3_-1
# Vertices 8
v 2.5962 1.4868 -0.3704
v 2.5962 1.4868 -2.3435
v 2.5962 1.9615 -3.4800
v 2.5962 0.1391 -2.3435
v 2.5962 0.1391 -0.3704
v 2.5962 1.9615 0.7700
v 2.5962 -1.0385 -3.4800
v 2.5962 -1.0385 0.7700
# Textures 24
vt -1.4868 -0.3704
vt -1.4868 -2.3435
vt -1.9615 -3.4800
vt -0.1391 -2.3435
vt -1.9615 -3.4800
vt -1.4868 -2.3435
vt -0.1391 -0.3704
vt -1.4868 -0.3704
vt -1.9615 0.7700
vt -1.9615 -3.4800
vt -1.9615 0.7700
vt -1.4868 -0.3704
vt -0.1391 -0.3704
vt 1.0385 -3.4800
vt -0.1391 -2.3435
vt -1.9615 -3.4800
vt -0.1391 -2.3435
vt 1.0385 -3.4800
vt -1.9615 0.7700
vt 1.0385 0.7700
vt -0.1391 -0.3704
vt 1.0385 -3.4800
vt -0.1391 -0.3704
vt 1.0385 0.7700
# Normals 8
vn 1.0000 0.0000 -0.0000
vn 1.0000 0.0000 -0.0000
vn 1.0000 0.0000 -0.0000
vn 1.0000 0.0000 -0.0000
vn 1.0000 0.0000 -0.0000
vn 1.0000 0.0000 -0.0000
vn 1.0000 0.0000 -0.0000
vn 1.0000 0.0000 -0.0000
# Faces
f 50/112/50 51/113/51 52/114/52 
f 53/115/53 52/116/52 51/117/51 
f 54/118/54 50/119/50 55/120/55 
f 52/121/52 55/122/55 50/123/50 
f 54/124/54 56/125/56 53/126/53 
f 52/127/52 53/128/53 56/129/56 
f 55/130/55 57/131/57 54/132/54 
f 56/133/56 54/134/54 57/135/57 
usemtl Mat_3_-1
# Vertices 8
v 1.8462 1.9615 -2.7300
v 1.8462 1.4868 -2.3435
v 1.8462 1.9615 0.0000
v 1.8462 0.1391 -2.3435
v 1.8462 1.4868 -0.3704
v 1.8462 0.1391 -0.3704
v 1.8462 -1.0385 -2.7300
v 1.8462 -1.0385 0.0000
# Textures 24
vt -1.9615 -2.7300
vt -1.4868 -2.3435
vt -1.9615 0.0000
vt -1.4868 -2.3435
vt -1.9615 -2.7300
vt -0.1391 -2.3435
vt -1.9615 0.0000
vt -1.4868 -0.3704
vt -0.1391 -0.3704
vt -1.4868 -0.3704
vt -1.9615 0.0000
vt -1.4868 -2.3435
vt -0.1391 -2.3435
vt 1.0385 -2.7300
vt 1.0385 0.0000
vt 1.0385 -2.7300
vt -0.1391 -2.3435
vt -1.9615 -2.7300
vt -0.1391 -0.3704
vt 1.0385 0.0000
vt -1.9615 0.0000
vt 1.0385 0.0000
vt -0.1391 -0.3704
vt -0.1391 -2.3435
# Normals 8
vn -1.0000 -0.0000 0.0000
vn -1.0000 -0.0000 0.0000
vn -1.0000 -0.0000 0.0000
vn -1.0000 -0.0000 0.0000
vn -1.0000 -0.0000 0.0000
vn -1.0000 -0.0000 0.0000
vn -1.0000 -0.0000 0.0000
vn -1.0000 -0.0000 0.0000
# Faces
f 58/136/58 59/137/59 60/138/60 
f 59/139/59 58/140/58 61/141/61 
f 60/142/60 62/143/62 63/144/63 
f 62/145/62 60/146/60 59/147/59 
f 61/148/61 64/149/64 65/150/65 
f 64/151/64 61/152/61 58/153/58 
f 63/154/63 65/155/65 60/156/60 
f 65/157/65 63/158/63 61/159/61 
usemtl Mat_3_-1
# Vertices 4
v 2.5962 0.1391 -0.3704
v 1.8462 1.4868 -0.3704
v 2.5962 1.4868 -0.3704
v 1.8462 0.1391 -0.3704
# Textures 6
vt 1.3477 0.7500
vt 0.0000 0.0000
vt 0.0000 0.7500
vt 0.0000 0.0000
vt 1.3477 0.7500
vt 1.3477 0.0000
# Normals 4
vn -0.0000 0.0000 -1.0000
vn -0.0000 0.0000 -1.0000
vn -0.0000 0.0000 -1.0000
vn -0.0000 0.0000 -1.0000
# Faces
f 66/160/66 67/161/67 68/162/68 
f 67/163/67 66/164/66 69/165/69 
usemtl Mat_3_-1
# Vertices 4
v 1.8462 1.4868 -2.3435
v 2.5962 1.4868 -2.3435
v 2.5962 1.4868 -0.3704
v 1.8462 1.4868 -0.3704
# Textures 6
vt 0.0000 -1.9730
vt 0.7500 -1.9730
vt 0.7500 0.0000
vt 0.7500 0.0000
vt 0.0000 0.0000
vt 0.0000 -1.9730
# Normals 4
vn 0.0000 -1.0000 0.0000
vn 0.0000 -1.0000 0.0000
vn 0.0000 -1.0000 0.0000
vn 0.0000 -1.0000 0.0000
# Faces
f 70/166/70 71/167/71 72/168/72 
f 72/169/72 73/170/73 70/171/70 
usemtl Mat_3_-1
# Vertices 4
v 1.8462 1.4868 -2.3435
v 1.8462 0.1391 -2.3435
v 2.5962 0.1391 -2.3435
v 2.5962 1.4868 -2.3435
# Textures 6
vt 0.0000 0.0000
vt -0.0000 -1.3477
vt 0.7500 -1.3477
vt 0.7500 -1.3477
vt 0.7500 0.0000
vt 0.0000 0.0000
# Normals 4
vn 0.0000 0.0000 1.0000
vn 0.0000 0.0000 1.0000
vn 0.0000 0.0000 1.0000
vn 0.0000 0.0000 1.0000
# Faces
f 74/172/74 75/173/75 76/174/76 
f 76/175/76 77/176/77 74/177/74 
usemtl Mat_3_-1
# Vertices 4
v 2.5962 0.1391 -2.3435
v 1.8462 0.1391 -2.3435
v 1.8462 0.1391 -0.3704
v 2.5962 0.1391 -0.3704
# Textures 6
vt 0.7500 -1.9730
vt -0.0000 -1.9730
vt 0.0000 0.0000
vt 0.0000 0.0000
vt 0.7500 0.0000
vt 0.7500 -1.9730
# Normals 4
vn -0.0000 1.0000 -0.0000
vn -0.0000 1.0000 -0.0000
vn -0.0000 1.0000 -0.0000
vn -0.0000 1.0000 -0.0000
# Faces
f 78/178/78 79/179/79 80/180/80 
f 80/181/80 81/182/81 78/183/78 
usemtl Mat_3_-1
# Vertices 8
v 1.0721 1.3231 -3.4800
v -1.4279 1.3231 -3.4800
v -2.9038 1.9615 -3.4800
v -1.4279 -0.1769 -3.4800
v 1.0721 -0.1769 -3.4800
v 2.5962 1.9615 -3.4800
v -2.9038 -1.0385 -3.4800
v 2.5962 -1.0385 -3.4800
# Textures 24
vt -1.3231 1.0721
vt -1.3231 -1.4279
vt -1.9615 -2.9038
vt 0.1769 -1.4279
vt -1.9615 -2.9038
vt -1.3231 -1.4279
vt 0.1769 1.0721
vt -1.3231 1.0721
vt -1.9615 2.5962
vt -1.9615 -2.9038
vt -1.9615 2.5962
vt -1.3231 1.0721
vt 0.1769 1.0721
vt 1.0385 -2.9038
vt 0.1769 -1.4279
vt -1.9615 -2.9038
vt 0.1769 -1.4279
vt 1.0385 -2.9038
vt -1.9615 2.5962
vt 1.0385 2.5962
vt 0.1769 1.0721
vt 1.0385 -2.9038
vt 0.1769 1.0721
vt 1.0385 2.5962
# Normals 8
vn 0.0000 0.0000 -1.0000
vn 0.0000 0.0000 -1.0000
vn 0.0000 0.0000 -1.0000
vn 0.0000 0.0000 -1.0000
vn 0.0000 0.0000 -1.0000
vn 0.0000 0.0000 -1.0000
vn 0.0000 0.0000 -1.0000
vn 0.0000 0.0000 -1.0000
# Faces
f 82/184/82 83/185/83 84/186/84 
f 85/187/85 84/188/84 83/189/83 
f 86/190/86 82/191/82 87/192/87 
f 84/193/84 87/194/87 82/195/82 
f 86/196/86 88/197/88 85/198/85 
f 84/199/84 85/200/85 88/201/88 
f 87/202/87 89/203/89 86/204/86 
f 88/205/88 86/206/86 89/207/89 
usemtl Mat_3_-1
# Vertices 8
v -2.1538 1.9615 -2.7300
v -1.4279 1.3231 -2.7300
v 1.0721 1.3231 -2.7300
v -1.4279 -0.1769 -2.7300
v 1.8462 1.9615 -2.7300
v 1.0721 -0.1769 -2.7300
v -2.1538 -1.0385 -2.7300
v 1.8462 -1.0385 -2.7300
# Textures 24
vt -1.9615 -2.1538
vt -1.3231 -1.4279
vt -1.3231 1.0721
vt -1.3231 -1.4279
vt -1.9615 -2.1538
vt 0.1769 -1.4279
vt -1.9615 1.8462
vt -1.3231 1.0721
vt 0.1769 1.0721
vt -1.3231 1.0721
vt -1.9615 1.8462
vt -1.9615 -2.1538
vt 0.1769 -1.4279
vt 1.0385 -2.1538
vt 0.1769 1.0721
vt 1.0385 -2.1538
vt 0.1769 -1.4279
vt -1.9615 -2.1538
vt 0.1769 1.0721
vt 1.0385 1.8462
vt -1.9615 1.8462
vt 1.0385 1.8462
vt 0.1769 1.0721
vt 1.0385 -2.1538
# Normals 8
vn -0.0000 -0.0000 1.0000
vn -0.0000 -0.0000 1.0000
vn -0.0000 -0.0000 1.0000
vn -0.0000 -0.0000 1.0000
vn -0.0000 -0.0000 1.0000
vn -0.0000 -0.0000 1.0000
vn -0.0000 -0.0000 1.0000
vn -0.0000 -0.0000 1.0000
# Faces
f 90/208/90 91/209/91 92/210/92 
f 91/211/91 90/212/90 93/213/93 
f 94/214/94 92/215/92 95/216/95 
f 92/217/92 94/218/94 90/219/90 
f 93/220/93 96/221/96 95/222/95 
f 96/223/96 93/224/93 90/225/90 
f 95/226/95 97/227/97 94/228/94 
f 97/229/97 95/230/95 96/231/96 
usemtl Mat_3_-1
# Vertices 4
v -2.1538 1.9615 0.0000
v -2.1538 -1.0385 0.0000
v -2.1538 -1.0385 -2.7300
v -2.1538 1.9615 -2.7300
# Textures 6
vt 0.0000 1.9615
vt 0.0000 -1.0385
vt 2.7300 -1.0385
vt 2.7300 -1.0385
vt 2.7300 1.9615
vt 0.0000 1.9615
# Normals 4
vn 1.0000 0.0000 0.0000
vn 1.0000 0.0000 0.0000
vn 1.0000 0.0000 0.0000
vn 1.0000 0.0000 0.0000
# Faces
f 98/232/98 99/233/99 100/234/100 
f 100/235/100 101/236/101 98/237/98 
usemtl Mat_3_-1
# Vertices 4
v -2.9038 -1.0385 -3.4800
v -2.9038 -1.0385 0.7700
v -2.9038 1.9615 0.7700
v -2.9038 1.9615 -3.4800
# Textures 6
vt 3.4800 -1.0385
vt -0.7700 -1.0385
vt -0.7700 1.9615
vt -0.7700 1.9615
vt 3.4800 1.9615
vt 3.4800 -1.0385
# Normals 4
vn -1.0000 -0.0000 -0.0000
vn -1.0000 -0.0000 -0.0000
vn -1.0000 -0.0000 -0.0000
vn -1.0000 -0.0000 -0.0000
# Faces
f 102/238/102 103/239/103 104/240/104 
f 104/241/104 105/242/105 102/243/102 
usemtl Mat_3_-1
# Vertices 4
v -1.4279 1.3231 -2.7300
v -1.4279 1.3231 -3.4800
v 1.0721 1.3231 -3.4800
v 1.0721 1.3231 -2.7300
# Textures 6
vt 0.0000 -2.5000
vt -0.7500 -2.5000
vt -0.7500 -0.0000
vt -0.7500 -0.0000
vt 0.0000 -0.0000
vt 0.0000 -2.5000
# Normals 4
vn 0.0000 -1.0000 -0.0000
vn 0.0000 -1.0000 -0.0000
vn 0.0000 -1.0000 -0.0000
vn 0.0000 -1.0000 -0.0000
# Faces
f 106/244/106 107/245/107 108/246/108 
f 108/247/108 109/248/109 106/249/106 
usemtl Mat_3_-1
# Vertices 4
v -1.4279 1.3231 -2.7300
v -1.4279 -0.1769 -3.4800
v -1.4279 1.3231 -3.4800
v -1.4279 -0.1769 -2.7300
# Textures 6
vt 0.0000 0.0000
vt -0.7500 -1.5000
vt -0.7500 0.0000
vt -0.7500 -1.5000
vt 0.0000 0.0000
vt 0.0000 -1.5000
# Normals 4
vn 1.0000 -0.0000 0.0000
vn 1.0000 -0.0000 0.0000
vn 1.0000 -0.0000 0.0000
vn 1.0000 -0.0000 0.0000
# Faces
f 110/250/110 111/251/111 112/252/112 
f 111/253/111 110/254/110 113/255/113 
usemtl Mat_3_-1
# Vertices 4
v 1.0721 -0.1769 -3.4800
v -1.4279 -0.1769 -3.4800
v -1.4279 -0.1769 -2.7300
v 1.0721 -0.1769 -2.7300
# Textures 6
vt 0.7500 2.5000
vt 0.7500 0.0000
vt 0.0000 0.0000
vt 0.0000 0.0000
vt 0.0000 2.5000
vt 0.7500 2.5000
# Normals 4
vn 0.0000 1.0000 0.0000
vn 0.0000 1.0000 0.0000
vn 0.0000 1.0000 0.0000
vn 0.0000 1.0000 0.0000
# Faces
f 114/256/114 115/257/115 116/258/116 
f 116/259/116 117/260/117 114/261/114 
usemtl Mat_3_-1
# Vertices 4
v 1.0721 1.3231 -2.7300
v 1.0721 1.3231 -3.4800
v 1.0721 -0.1769 -3.4800
v 1.0721 -0.1769 -2.7300
# Textures 6
vt 0.0000 0.0000
vt 0.0000 -0.7500
vt -1.5000 -0.7500
vt -1.5000 -0.7500
vt -1.5000 0.0000
vt 0.0000 0.0000
# Normals 4
vn -1.0000 0.0000 0.0000
vn -1.0000 0.0000 0.0000
vn -1.0000 0.0000 0.0000
vn -1.0000 0.0000 0.0000
# Faces
f 118/262/118 119/263/119 120/264/120 
f 120/265/120 121/266/121 118/267/118 
