#Wavefront Obj file
#Converted from Glovius
#HCL Technologies Ltd
#http://www.glovius.com
#
mtllib WallandDoor.mtl
g WallandDoor
g Default
usemtl Mat_3_-1
# Vertices 4
v -7.8780 0.1000 13.6681
v -7.8780 0.0000 13.6681
v -7.8780 0.0000 16.1681
v -7.8780 0.1000 16.1681
# Textures 6
vt 0.0000 0.0000
vt 0.0000 -0.1000
vt -2.5000 -0.1000
vt -2.5000 -0.1000
vt -2.5000 0.0000
vt 0.0000 0.0000
# Normals 4
vn -1.0000 -0.0000 -0.0000
vn -1.0000 -0.0000 -0.0000
vn -1.0000 -0.0000 -0.0000
vn -1.0000 -0.0000 -0.0000
# Faces
f 1/1/1 2/2/2 3/3/3 
f 3/4/3 4/5/4 1/6/1 
usemtl Mat_3_-1
# Vertices 8
v -4.3780 0.1000 16.1681
v -5.7280 0.0500 16.1681
v -4.3780 0.0000 16.1681
v -6.5280 0.0500 16.1681
v -5.7280 0.1000 16.1681
v -7.8780 0.1000 16.1681
v -7.8780 0.0000 16.1681
v -6.5280 0.1000 16.1681
# Textures 18
vt -3.5000 0.0000
vt -2.1500 -0.0500
vt -3.5000 -0.1000
vt -1.3500 -0.0500
vt -3.5000 -0.1000
vt -2.1500 -0.0500
vt -2.1500 -0.0500
vt -3.5000 0.0000
vt -2.1500 0.0000
vt 0.0000 0.0000
vt 0.0000 -0.1000
vt -1.3500 -0.0500
vt -3.5000 -0.1000
vt -1.3500 -0.0500
vt 0.0000 -0.1000
vt -1.3500 -0.0500
vt -1.3500 0.0000
vt 0.0000 0.0000
# Normals 8
vn -0.0000 -0.0000 1.0000
vn -0.0000 -0.0000 1.0000
vn -0.0000 -0.0000 1.0000
vn -0.0000 -0.0000 1.0000
vn -0.0000 -0.0000 1.0000
vn -0.0000 -0.0000 1.0000
vn -0.0000 -0.0000 1.0000
vn -0.0000 -0.0000 1.0000
# Faces
f 5/7/5 6/8/6 7/9/7 
f 8/10/8 7/11/7 6/12/6 
f 6/13/6 5/14/5 9/15/9 
f 10/16/10 11/17/11 8/18/8 
f 7/19/7 8/20/8 11/21/11 
f 8/22/8 12/23/12 10/24/10 
usemtl Mat_3_-1
# Vertices 4
v -4.3780 0.0000 16.1681
v -4.3780 0.0000 13.6681
v -4.3780 0.1000 13.6681
v -4.3780 0.1000 16.1681
# Textures 6
vt -2.5000 -0.1000
vt 0.0000 -0.1000
vt 0.0000 0.0000
vt 0.0000 0.0000
vt -2.5000 0.0000
vt -2.5000 -0.1000
# Normals 4
vn 1.0000 0.0000 0.0000
vn 1.0000 0.0000 0.0000
vn 1.0000 0.0000 0.0000
vn 1.0000 0.0000 0.0000
# Faces
f 13/25/13 14/26/14 15/27/15 
f 15/28/15 16/29/16 13/30/13 
usemtl Mat_3_-1
# Vertices 4
v -4.3780 0.0000 13.6681
v -7.8780 0.0000 13.6681
v -7.8780 0.1000 13.6681
v -4.3780 0.1000 13.6681
# Textures 6
vt -3.5000 -0.1000
vt 0.0000 -0.1000
vt 0.0000 0.0000
vt 0.0000 0.0000
vt -3.5000 0.0000
vt -3.5000 -0.1000
# Normals 4
vn 0.0000 0.0000 -1.0000
vn 0.0000 0.0000 -1.0000
vn 0.0000 0.0000 -1.0000
vn 0.0000 0.0000 -1.0000
# Faces
f 17/31/17 18/32/18 19/33/19 
f 19/34/19 20/35/20 17/36/17 
usemtl Mat_3_-1
# Vertices 8
v -7.8780 0.1000 13.6681
v -6.5280 0.1000 14.1681
v -4.3780 0.1000 13.6681
v -7.8780 0.1000 16.1681
v -5.7280 0.1000 14.1681
v -4.3780 0.1000 16.1681
v -6.5280 0.1000 16.1681
v -5.7280 0.1000 16.1681
# Textures 18
vt 13.6681 -7.8780
vt 14.1681 -6.5280
vt 13.6681 -4.3780
vt 14.1681 -6.5280
vt 13.6681 -7.8780
vt 16.1681 -7.8780
vt 13.6681 -4.3780
vt 14.1681 -5.7280
vt 16.1681 -4.3780
vt 14.1681 -5.7280
vt 13.6681 -4.3780
vt 14.1681 -6.5280
vt 16.1681 -7.8780
vt 16.1681 -6.5280
vt 14.1681 -6.5280
vt 16.1681 -5.7280
vt 16.1681 -4.3780
vt 14.1681 -5.7280
# Normals 8
vn 0.0000 1.0000 0.0000
vn 0.0000 1.0000 0.0000
vn 0.0000 1.0000 0.0000
vn 0.0000 1.0000 0.0000
vn 0.0000 1.0000 0.0000
vn 0.0000 1.0000 0.0000
vn 0.0000 1.0000 0.0000
vn 0.0000 1.0000 0.0000
# Faces
f 21/37/21 22/38/22 23/39/23 
f 22/40/22 21/41/21 24/42/24 
f 23/43/23 25/44/25 26/45/26 
f 25/46/25 23/47/23 22/48/22 
f 24/49/24 27/50/27 22/51/22 
f 28/52/28 26/53/26 25/54/25 
usemtl Mat_3_-1
# Vertices 4
v -4.3780 0.0000 16.1681
v -7.8780 0.0000 16.1681
v -7.8780 0.0000 13.6681
v -4.3780 0.0000 13.6681
# Textures 6
vt 16.1681 -4.3780
vt 16.1681 -7.8780
vt 13.6681 -7.8780
vt 13.6681 -7.8780
vt 13.6681 -4.3780
vt 16.1681 -4.3780
# Normals 4
vn -0.0000 -1.0000 -0.0000
vn -0.0000 -1.0000 -0.0000
vn -0.0000 -1.0000 -0.0000
vn -0.0000 -1.0000 -0.0000
# Faces
f 29/55/29 30/56/30 31/57/31 
f 31/58/31 32/59/32 29/60/29 
usemtl Mat_3_-1
# Vertices 4
v -6.5280 0.1000 16.1681
v -6.5280 0.0500 16.1681
v -6.5280 0.0500 14.1681
v -6.5280 0.1000 14.1681
# Textures 6
vt 2.0000 0.0500
vt 2.0000 0.0000
vt 0.0000 0.0000
vt 0.0000 0.0000
vt 0.0000 0.0500
vt 2.0000 0.0500
# Normals 4
vn 1.0000 -0.0000 -0.0000
vn 1.0000 -0.0000 -0.0000
vn 1.0000 -0.0000 -0.0000
vn 1.0000 -0.0000 -0.0000
# Faces
f 33/61/33 34/62/34 35/63/35 
f 35/64/35 36/65/36 33/66/33 
usemtl Mat_3_-1
# Vertices 4
v -6.5280 0.1000 14.1681
v -6.5280 0.0500 14.1681
v -5.7280 0.0500 14.1681
v -5.7280 0.1000 14.1681
# Textures 6
vt 0.0000 0.0500
vt 0.0000 0.0000
vt -0.8000 0.0000
vt -0.8000 0.0000
vt -0.8000 0.0500
vt 0.0000 0.0500
# Normals 4
vn -0.0000 -0.0000 1.0000
vn -0.0000 -0.0000 1.0000
vn -0.0000 -0.0000 1.0000
vn -0.0000 -0.0000 1.0000
# Faces
f 37/67/37 38/68/38 39/69/39 
f 39/70/39 40/71/40 37/72/37 
usemtl Mat_3_-1
# Vertices 4
v -5.7280 0.1000 14.1681
v -5.7280 0.0500 14.1681
v -5.7280 0.0500 16.1681
v -5.7280 0.1000 16.1681
# Textures 6
vt 0.0000 0.0500
vt 0.0000 0.0000
vt -2.0000 0.0000
vt -2.0000 0.0000
vt -2.0000 0.0500
vt 0.0000 0.0500
# Normals 4
vn -1.0000 -0.0000 0.0000
vn -1.0000 -0.0000 0.0000
vn -1.0000 -0.0000 0.0000
vn -1.0000 -0.0000 0.0000
# Faces
f 41/73/41 42/74/42 43/75/43 
f 43/76/43 44/77/44 41/78/41 
usemtl Mat_3_-1
# Vertices 4
v -5.7280 0.0500 14.1681
v -6.5280 0.0500 14.1681
v -6.5280 0.0500 16.1681
v -5.7280 0.0500 16.1681
# Textures 6
vt 14.1681 -5.7280
vt 14.1681 -6.5280
vt 16.1681 -6.5280
vt 16.1681 -6.5280
vt 16.1681 -5.7280
vt 14.1681 -5.7280
# Normals 4
vn 0.0000 1.0000 0.0000
vn 0.0000 1.0000 0.0000
vn 0.0000 1.0000 0.0000
vn 0.0000 1.0000 0.0000
# Faces
f 45/79/45 46/80/46 47/81/47 
f 47/82/47 48/83/48 45/84/45 
