#Wavefront Obj file
#Converted from Glovius
#HCL Technologies Ltd
#http://www.glovius.com
#
mtllib Wall1.mtl
g Wall1
g Default
usemtl Mat_3_-1
# Vertices 4
v -0.0188 0.0104 0.0050
v -0.0238 0.0104 0.0050
v -0.0238 0.0104 -0.0050
v -0.0188 0.0104 -0.0050
# Textures 6
vt 0.0000 0.0200
vt 0.0000 0.0150
vt -0.0100 0.0150
vt -0.0100 0.0150
vt -0.0100 0.0200
vt 0.0000 0.0200
# Normals 4
vn -0.0000 -1.0000 -0.0000
vn -0.0000 -1.0000 -0.0000
vn -0.0000 -1.0000 -0.0000
vn -0.0000 -1.0000 -0.0000
# Faces
f 1/1/1 2/2/2 3/3/3 
f 3/4/3 4/5/4 1/6/1 
usemtl Mat_3_-1
# Vertices 4
v -0.0388 0.0354 0.0050
v -0.0388 0.0354 -0.0050
v -0.0388 0.0104 -0.0050
v -0.0388 0.0104 0.0050
# Textures 6
vt 0.0000 0.0000
vt 0.0000 -0.0100
vt -0.0250 -0.0100
vt -0.0250 -0.0100
vt -0.0250 0.0000
vt 0.0000 0.0000
# Normals 4
vn -1.0000 0.0000 -0.0000
vn -1.0000 0.0000 -0.0000
vn -1.0000 0.0000 -0.0000
vn -1.0000 0.0000 -0.0000
# Faces
f 5/7/5 6/8/6 7/9/7 
f 7/10/7 8/11/8 5/12/5 
usemtl Mat_3_-1
# Vertices 4
v -0.0338 0.0104 0.0050
v -0.0388 0.0104 0.0050
v -0.0388 0.0104 -0.0050
v -0.0338 0.0104 -0.0050
# Textures 6
vt 0.0000 0.0050
vt 0.0000 0.0000
vt -0.0100 0.0000
vt -0.0100 0.0000
vt -0.0100 0.0050
vt 0.0000 0.0050
# Normals 4
vn -0.0000 -1.0000 -0.0000
vn -0.0000 -1.0000 -0.0000
vn -0.0000 -1.0000 -0.0000
vn -0.0000 -1.0000 -0.0000
# Faces
f 9/13/9 10/14/10 11/15/11 
f 11/16/11 12/17/12 9/18/9 
usemtl Mat_3_-1
# Vertices 4
v -0.0188 0.0104 -0.0050
v -0.0188 0.0354 -0.0050
v -0.0188 0.0354 0.0050
v -0.0188 0.0104 0.0050
# Textures 6
vt -0.0250 -0.0100
vt 0.0000 -0.0100
vt 0.0000 0.0000
vt 0.0000 0.0000
vt -0.0250 0.0000
vt -0.0250 -0.0100
# Normals 4
vn 1.0000 0.0000 0.0000
vn 1.0000 0.0000 0.0000
vn 1.0000 0.0000 0.0000
vn 1.0000 0.0000 0.0000
# Faces
f 13/19/13 14/20/14 15/21/15 
f 15/22/15 16/23/16 13/24/13 
usemtl Mat_3_-1
# Vertices 4
v -0.0388 0.0354 -0.0050
v -0.0388 0.0354 0.0050
v -0.0188 0.0354 0.0050
v -0.0188 0.0354 -0.0050
# Textures 6
vt -0.0100 0.0000
vt 0.0000 0.0000
vt 0.0000 0.0200
vt 0.0000 0.0200
vt -0.0100 0.0200
vt -0.0100 0.0000
# Normals 4
vn 0.0000 1.0000 0.0000
vn 0.0000 1.0000 0.0000
vn 0.0000 1.0000 0.0000
vn 0.0000 1.0000 0.0000
# Faces
f 17/25/17 18/26/18 19/27/19 
f 19/28/19 20/29/20 17/30/17 
usemtl Mat_3_-1
# Vertices 8
v -0.0388 0.0104 0.0050
v -0.0338 0.0104 0.0050
v -0.0338 0.0304 0.0050
v -0.0388 0.0354 0.0050
v -0.0188 0.0354 0.0050
v -0.0238 0.0104 0.0050
v -0.0188 0.0104 0.0050
v -0.0238 0.0304 0.0050
# Textures 18
vt -0.0388 0.0104
vt -0.0338 0.0104
vt -0.0338 0.0304
vt -0.0388 0.0354
vt -0.0338 0.0304
vt -0.0188 0.0354
vt -0.0338 0.0304
vt -0.0388 0.0354
vt -0.0388 0.0104
vt -0.0238 0.0104
vt -0.0188 0.0104
vt -0.0238 0.0304
vt -0.0238 0.0304
vt -0.0188 0.0354
vt -0.0338 0.0304
vt -0.0188 0.0354
vt -0.0238 0.0304
vt -0.0188 0.0104
# Normals 8
vn 0.0000 0.0000 1.0000
vn 0.0000 0.0000 1.0000
vn 0.0000 0.0000 1.0000
vn 0.0000 0.0000 1.0000
vn 0.0000 0.0000 1.0000
vn 0.0000 0.0000 1.0000
vn 0.0000 0.0000 1.0000
vn 0.0000 0.0000 1.0000
# Faces
f 21/31/21 22/32/22 23/33/23 
f 24/34/24 23/35/23 25/36/25 
f 23/37/23 24/38/24 21/39/21 
f 26/40/26 27/41/27 28/42/28 
f 28/43/28 25/44/25 23/45/23 
f 25/46/25 28/47/28 27/48/27 
usemtl Mat_3_-1
# Vertices 8
v -0.0338 0.0304 -0.0050
v -0.0338 0.0104 -0.0050
v -0.0388 0.0104 -0.0050
v -0.0188 0.0354 -0.0050
v -0.0388 0.0354 -0.0050
v -0.0238 0.0304 -0.0050
v -0.0188 0.0104 -0.0050
v -0.0238 0.0104 -0.0050
# Textures 18
vt -0.0338 0.0304
vt -0.0338 0.0104
vt -0.0388 0.0104
vt -0.0188 0.0354
vt -0.0338 0.0304
vt -0.0388 0.0354
vt -0.0388 0.0104
vt -0.0388 0.0354
vt -0.0338 0.0304
vt -0.0238 0.0304
vt -0.0188 0.0104
vt -0.0238 0.0104
vt -0.0338 0.0304
vt -0.0188 0.0354
vt -0.0238 0.0304
vt -0.0188 0.0104
vt -0.0238 0.0304
vt -0.0188 0.0354
# Normals 8
vn -0.0000 -0.0000 -1.0000
vn -0.0000 -0.0000 -1.0000
vn -0.0000 -0.0000 -1.0000
vn -0.0000 -0.0000 -1.0000
vn -0.0000 -0.0000 -1.0000
vn -0.0000 -0.0000 -1.0000
vn -0.0000 -0.0000 -1.0000
vn -0.0000 -0.0000 -1.0000
# Faces
f 29/49/29 30/50/30 31/51/31 
f 32/52/32 29/53/29 33/54/33 
f 31/55/31 33/56/33 29/57/29 
f 34/58/34 35/59/35 36/60/36 
f 29/61/29 32/62/32 34/63/34 
f 35/64/35 34/65/34 32/66/32 
usemtl Mat_3_-1
# Vertices 4
v -0.0238 0.0304 -0.0050
v -0.0238 0.0104 -0.0050
v -0.0238 0.0104 0.0050
v -0.0238 0.0304 0.0050
# Textures 6
vt 0.0000 0.0200
vt 0.0000 0.0000
vt -0.0100 0.0000
vt -0.0100 0.0000
vt -0.0100 0.0200
vt 0.0000 0.0200
# Normals 4
vn -1.0000 -0.0000 -0.0000
vn -1.0000 -0.0000 -0.0000
vn -1.0000 -0.0000 -0.0000
vn -1.0000 -0.0000 -0.0000
# Faces
f 37/67/37 38/68/38 39/69/39 
f 39/70/39 40/71/40 37/72/37 
usemtl Mat_3_-1
# Vertices 4
v -0.0338 0.0304 0.0050
v -0.0338 0.0104 0.0050
v -0.0338 0.0104 -0.0050
v -0.0338 0.0304 -0.0050
# Textures 6
vt 0.0100 0.0000
vt 0.0100 -0.0200
vt 0.0000 -0.0200
vt 0.0000 -0.0200
vt 0.0000 0.0000
vt 0.0100 0.0000
# Normals 4
vn 1.0000 -0.0000 -0.0000
vn 1.0000 -0.0000 -0.0000
vn 1.0000 -0.0000 -0.0000
vn 1.0000 -0.0000 -0.0000
# Faces
f 41/73/41 42/74/42 43/75/43 
f 43/76/43 44/77/44 41/78/41 
usemtl Mat_3_-1
# Vertices 4
v -0.0238 0.0304 0.0050
v -0.0338 0.0304 0.0050
v -0.0338 0.0304 -0.0050
v -0.0238 0.0304 -0.0050
# Textures 6
vt 0.0100 0.0000
vt 0.0100 -0.0100
vt 0.0000 -0.0100
vt 0.0000 -0.0100
vt 0.0000 0.0000
vt 0.0100 0.0000
# Normals 4
vn -0.0000 -1.0000 -0.0000
vn -0.0000 -1.0000 -0.0000
vn -0.0000 -1.0000 -0.0000
vn -0.0000 -1.0000 -0.0000
# Faces
f 45/79/45 46/80/46 47/81/47 
f 47/82/47 48/83/48 45/84/45 
